<mxfile host="app.diagrams.net" modified="2023-08-02T18:00:10.949Z" agent="Mozilla/5.0 (Windows NT 10.0; Win64; x64) AppleWebKit/537.36 (KHTML, like Gecko) Chrome/115.0.0.0 Safari/537.36" etag="8bnitEBtn_zSgswWP7Hx" version="21.6.6" type="github">
  <diagram name="第 1 页" id="WryI6ifQVxT4blROleSV">
    <mxGraphModel dx="2211" dy="701" grid="1" gridSize="10" guides="1" tooltips="1" connect="1" arrows="1" fold="1" page="1" pageScale="1" pageWidth="827" pageHeight="1169" math="0" shadow="0">
      <root>
        <mxCell id="0" />
        <mxCell id="1" parent="0" />
        <mxCell id="r3c9W2mHi3GQtlLTI8hq-2" value="&lt;font style=&quot;font-size: 15px;&quot;&gt;transformer_map&lt;/font&gt;" style="rounded=0;whiteSpace=wrap;html=1;fillColor=#f8cecc;strokeColor=#b85450;" vertex="1" parent="1">
          <mxGeometry x="50" y="200" width="150" height="50" as="geometry" />
        </mxCell>
        <mxCell id="r3c9W2mHi3GQtlLTI8hq-52" style="edgeStyle=orthogonalEdgeStyle;rounded=0;orthogonalLoop=1;jettySize=auto;html=1;exitX=0.5;exitY=1;exitDx=0;exitDy=0;entryX=0;entryY=0.5;entryDx=0;entryDy=0;" edge="1" parent="1" source="r3c9W2mHi3GQtlLTI8hq-4" target="r3c9W2mHi3GQtlLTI8hq-47">
          <mxGeometry relative="1" as="geometry" />
        </mxCell>
        <mxCell id="r3c9W2mHi3GQtlLTI8hq-4" value="" style="rounded=0;whiteSpace=wrap;html=1;fillColor=#d5e8d4;strokeColor=#82b366;" vertex="1" parent="1">
          <mxGeometry x="50" y="292.5" width="30" height="110" as="geometry" />
        </mxCell>
        <mxCell id="r3c9W2mHi3GQtlLTI8hq-40" style="edgeStyle=orthogonalEdgeStyle;rounded=0;orthogonalLoop=1;jettySize=auto;html=1;exitX=1;exitY=0.5;exitDx=0;exitDy=0;entryX=0;entryY=0.5;entryDx=0;entryDy=0;" edge="1" parent="1" source="r3c9W2mHi3GQtlLTI8hq-5">
          <mxGeometry relative="1" as="geometry">
            <mxPoint x="360" y="225" as="targetPoint" />
          </mxGeometry>
        </mxCell>
        <mxCell id="r3c9W2mHi3GQtlLTI8hq-5" value="co&lt;br&gt;nv" style="rounded=0;whiteSpace=wrap;html=1;fillColor=#d5e8d4;strokeColor=#82b366;" vertex="1" parent="1">
          <mxGeometry x="210" y="200" width="20" height="50" as="geometry" />
        </mxCell>
        <mxCell id="r3c9W2mHi3GQtlLTI8hq-6" value="&lt;font style=&quot;font-size: 13px;&quot;&gt;ProcessModule&lt;/font&gt;" style="whiteSpace=wrap;html=1;aspect=fixed;fillColor=#fff2cc;strokeColor=#d6b656;" vertex="1" parent="1">
          <mxGeometry x="90" y="292.5" width="97.5" height="97.5" as="geometry" />
        </mxCell>
        <mxCell id="r3c9W2mHi3GQtlLTI8hq-64" style="edgeStyle=orthogonalEdgeStyle;rounded=0;orthogonalLoop=1;jettySize=auto;html=1;exitX=0;exitY=0.5;exitDx=0;exitDy=0;entryX=0;entryY=0.5;entryDx=0;entryDy=0;" edge="1" parent="1" source="r3c9W2mHi3GQtlLTI8hq-8" target="r3c9W2mHi3GQtlLTI8hq-14">
          <mxGeometry relative="1" as="geometry" />
        </mxCell>
        <mxCell id="r3c9W2mHi3GQtlLTI8hq-8" value="" style="rounded=0;whiteSpace=wrap;html=1;rotation=90;fillColor=#e1d5e7;strokeColor=#9673a6;" vertex="1" parent="1">
          <mxGeometry x="190" y="340" width="120" height="15" as="geometry" />
        </mxCell>
        <mxCell id="r3c9W2mHi3GQtlLTI8hq-65" style="edgeStyle=orthogonalEdgeStyle;rounded=0;orthogonalLoop=1;jettySize=auto;html=1;exitX=1;exitY=0.5;exitDx=0;exitDy=0;entryX=1;entryY=0.5;entryDx=0;entryDy=0;" edge="1" parent="1" source="r3c9W2mHi3GQtlLTI8hq-9" target="r3c9W2mHi3GQtlLTI8hq-13">
          <mxGeometry relative="1" as="geometry" />
        </mxCell>
        <mxCell id="r3c9W2mHi3GQtlLTI8hq-9" value="" style="rounded=0;whiteSpace=wrap;html=1;rotation=90;fillColor=#d5e8d4;strokeColor=#82b366;" vertex="1" parent="1">
          <mxGeometry x="230" y="340" width="100" height="15" as="geometry" />
        </mxCell>
        <mxCell id="r3c9W2mHi3GQtlLTI8hq-10" value="" style="rounded=0;whiteSpace=wrap;html=1;rotation=90;fillColor=#dae8fc;strokeColor=#6c8ebf;" vertex="1" parent="1">
          <mxGeometry x="280" y="340" width="70" height="15" as="geometry" />
        </mxCell>
        <mxCell id="r3c9W2mHi3GQtlLTI8hq-12" value="" style="rounded=0;whiteSpace=wrap;html=1;rotation=90;fillColor=#dae8fc;strokeColor=#6c8ebf;" vertex="1" parent="1">
          <mxGeometry x="310" y="340" width="70" height="15" as="geometry" />
        </mxCell>
        <mxCell id="r3c9W2mHi3GQtlLTI8hq-13" value="" style="rounded=0;whiteSpace=wrap;html=1;rotation=90;fillColor=#d5e8d4;strokeColor=#82b366;" vertex="1" parent="1">
          <mxGeometry x="330" y="340" width="100" height="15" as="geometry" />
        </mxCell>
        <mxCell id="r3c9W2mHi3GQtlLTI8hq-60" style="edgeStyle=orthogonalEdgeStyle;rounded=0;orthogonalLoop=1;jettySize=auto;html=1;exitX=0.5;exitY=0;exitDx=0;exitDy=0;entryX=0.5;entryY=0;entryDx=0;entryDy=0;" edge="1" parent="1" source="r3c9W2mHi3GQtlLTI8hq-14" target="r3c9W2mHi3GQtlLTI8hq-58">
          <mxGeometry relative="1" as="geometry">
            <Array as="points">
              <mxPoint x="435" y="348" />
            </Array>
          </mxGeometry>
        </mxCell>
        <mxCell id="r3c9W2mHi3GQtlLTI8hq-14" value="" style="rounded=0;whiteSpace=wrap;html=1;rotation=90;fillColor=#e1d5e7;strokeColor=#9673a6;" vertex="1" parent="1">
          <mxGeometry x="350" y="340" width="120" height="15" as="geometry" />
        </mxCell>
        <mxCell id="r3c9W2mHi3GQtlLTI8hq-25" style="edgeStyle=orthogonalEdgeStyle;rounded=0;orthogonalLoop=1;jettySize=auto;html=1;exitX=1;exitY=0.5;exitDx=0;exitDy=0;" edge="1" parent="1" source="r3c9W2mHi3GQtlLTI8hq-15">
          <mxGeometry relative="1" as="geometry">
            <mxPoint x="640" y="347.5" as="targetPoint" />
          </mxGeometry>
        </mxCell>
        <mxCell id="r3c9W2mHi3GQtlLTI8hq-15" value="&lt;font style=&quot;font-size: 14px;&quot;&gt;ProcessModule&lt;/font&gt;" style="whiteSpace=wrap;html=1;aspect=fixed;fillColor=#fff2cc;strokeColor=#d6b656;" vertex="1" parent="1">
          <mxGeometry x="440" y="292.5" width="110" height="110" as="geometry" />
        </mxCell>
        <mxCell id="r3c9W2mHi3GQtlLTI8hq-33" style="edgeStyle=orthogonalEdgeStyle;rounded=0;orthogonalLoop=1;jettySize=auto;html=1;exitX=0.5;exitY=0;exitDx=0;exitDy=0;" edge="1" parent="1">
          <mxGeometry relative="1" as="geometry">
            <mxPoint x="370" y="210" as="targetPoint" />
            <mxPoint x="-40" y="277.5" as="sourcePoint" />
            <Array as="points">
              <mxPoint x="-40" y="154" />
              <mxPoint x="370" y="154" />
            </Array>
          </mxGeometry>
        </mxCell>
        <mxCell id="r3c9W2mHi3GQtlLTI8hq-18" value="Image" style="whiteSpace=wrap;html=1;aspect=fixed;" vertex="1" parent="1">
          <mxGeometry x="-130" y="277.5" width="140" height="140" as="geometry" />
        </mxCell>
        <mxCell id="r3c9W2mHi3GQtlLTI8hq-30" style="edgeStyle=orthogonalEdgeStyle;rounded=0;orthogonalLoop=1;jettySize=auto;html=1;exitX=0.5;exitY=1;exitDx=0;exitDy=0;" edge="1" parent="1" source="r3c9W2mHi3GQtlLTI8hq-26">
          <mxGeometry relative="1" as="geometry">
            <mxPoint x="660" y="370" as="targetPoint" />
            <Array as="points">
              <mxPoint x="205" y="430" />
              <mxPoint x="661" y="430" />
            </Array>
          </mxGeometry>
        </mxCell>
        <mxCell id="r3c9W2mHi3GQtlLTI8hq-26" value="" style="rounded=0;whiteSpace=wrap;html=1;fillColor=#d5e8d4;strokeColor=#82b366;" vertex="1" parent="1">
          <mxGeometry x="190" y="292.5" width="30" height="110" as="geometry" />
        </mxCell>
        <mxCell id="r3c9W2mHi3GQtlLTI8hq-41" style="edgeStyle=orthogonalEdgeStyle;rounded=0;orthogonalLoop=1;jettySize=auto;html=1;exitX=1;exitY=0.5;exitDx=0;exitDy=0;" edge="1" parent="1">
          <mxGeometry relative="1" as="geometry">
            <mxPoint x="660" y="330" as="targetPoint" />
            <mxPoint x="380" y="225" as="sourcePoint" />
          </mxGeometry>
        </mxCell>
        <mxCell id="r3c9W2mHi3GQtlLTI8hq-42" value="" style="shape=orEllipse;perimeter=ellipsePerimeter;whiteSpace=wrap;html=1;backgroundOutline=1;" vertex="1" parent="1">
          <mxGeometry x="640" y="332.5" width="30" height="30" as="geometry" />
        </mxCell>
        <mxCell id="r3c9W2mHi3GQtlLTI8hq-44" value="" style="shape=sumEllipse;perimeter=ellipsePerimeter;whiteSpace=wrap;html=1;backgroundOutline=1;" vertex="1" parent="1">
          <mxGeometry x="360" y="210" width="20" height="20" as="geometry" />
        </mxCell>
        <mxCell id="r3c9W2mHi3GQtlLTI8hq-47" value="" style="rounded=0;whiteSpace=wrap;html=1;fillColor=#dae8fc;gradientColor=#7ea6e0;strokeColor=#6c8ebf;" vertex="1" parent="1">
          <mxGeometry x="180" y="490" width="50" height="140" as="geometry" />
        </mxCell>
        <mxCell id="r3c9W2mHi3GQtlLTI8hq-49" value="" style="rounded=0;whiteSpace=wrap;html=1;fillColor=#dae8fc;gradientColor=#7ea6e0;strokeColor=#6c8ebf;" vertex="1" parent="1">
          <mxGeometry x="300" y="490" width="50" height="140" as="geometry" />
        </mxCell>
        <mxCell id="r3c9W2mHi3GQtlLTI8hq-50" value="" style="rounded=0;whiteSpace=wrap;html=1;fillColor=#fa6800;fontColor=#000000;strokeColor=#C73500;" vertex="1" parent="1">
          <mxGeometry x="250" y="490" width="30" height="140" as="geometry" />
        </mxCell>
        <mxCell id="r3c9W2mHi3GQtlLTI8hq-62" style="edgeStyle=orthogonalEdgeStyle;rounded=0;orthogonalLoop=1;jettySize=auto;html=1;exitX=1;exitY=0.5;exitDx=0;exitDy=0;entryX=0;entryY=0.5;entryDx=0;entryDy=0;" edge="1" parent="1" source="r3c9W2mHi3GQtlLTI8hq-51" target="r3c9W2mHi3GQtlLTI8hq-57">
          <mxGeometry relative="1" as="geometry" />
        </mxCell>
        <mxCell id="r3c9W2mHi3GQtlLTI8hq-51" value="" style="rounded=0;whiteSpace=wrap;html=1;fillColor=#fa6800;fontColor=#000000;strokeColor=#C73500;" vertex="1" parent="1">
          <mxGeometry x="365" y="490" width="30" height="140" as="geometry" />
        </mxCell>
        <mxCell id="r3c9W2mHi3GQtlLTI8hq-63" style="edgeStyle=orthogonalEdgeStyle;rounded=0;orthogonalLoop=1;jettySize=auto;html=1;exitX=1;exitY=0.5;exitDx=0;exitDy=0;" edge="1" parent="1" source="r3c9W2mHi3GQtlLTI8hq-57">
          <mxGeometry relative="1" as="geometry">
            <mxPoint x="660" y="430" as="targetPoint" />
          </mxGeometry>
        </mxCell>
        <mxCell id="r3c9W2mHi3GQtlLTI8hq-57" value="" style="shape=sumEllipse;perimeter=ellipsePerimeter;whiteSpace=wrap;html=1;backgroundOutline=1;" vertex="1" parent="1">
          <mxGeometry x="420" y="545" width="30" height="30" as="geometry" />
        </mxCell>
        <mxCell id="r3c9W2mHi3GQtlLTI8hq-61" style="edgeStyle=orthogonalEdgeStyle;rounded=0;orthogonalLoop=1;jettySize=auto;html=1;exitX=0.5;exitY=1;exitDx=0;exitDy=0;entryX=0.5;entryY=0;entryDx=0;entryDy=0;" edge="1" parent="1" source="r3c9W2mHi3GQtlLTI8hq-58" target="r3c9W2mHi3GQtlLTI8hq-57">
          <mxGeometry relative="1" as="geometry" />
        </mxCell>
        <mxCell id="r3c9W2mHi3GQtlLTI8hq-58" value="" style="rounded=0;whiteSpace=wrap;html=1;fillColor=#bac8d3;strokeColor=#23445d;" vertex="1" parent="1">
          <mxGeometry x="380" y="440" width="110" height="40" as="geometry" />
        </mxCell>
      </root>
    </mxGraphModel>
  </diagram>
</mxfile>
